<?xml version="1.0" encoding="UTF-8" standalone="no"?>
<svg
   xmlns:dc="http://purl.org/dc/elements/1.1/"
   xmlns:cc="http://creativecommons.org/ns#"
   xmlns:rdf="http://www.w3.org/1999/02/22-rdf-syntax-ns#"
   xmlns:svg="http://www.w3.org/2000/svg"
   xmlns="http://www.w3.org/2000/svg"
   xmlns:sodipodi="http://sodipodi.sourceforge.net/DTD/sodipodi-0.dtd"
   xmlns:inkscape="http://www.inkscape.org/namespaces/inkscape"
   id="Layer_2"
   data-name="Layer 2"
   viewBox="0 0 110 55"
   version="1.1"
   sodipodi:docname="amazon_prime.svg"
   width="110"
   height="55"
   inkscape:version="0.92.4 (5da689c313, 2019-01-14)">
  <metadata
     id="metadata29">
    <rdf:RDF>
      <cc:Work
         rdf:about="">
        <dc:format>image/svg+xml</dc:format>
        <dc:type
           rdf:resource="http://purl.org/dc/dcmitype/StillImage" />
      </cc:Work>
    </rdf:RDF>
  </metadata>
  <sodipodi:namedview
     pagecolor="#ffffff"
     bordercolor="#666666"
     borderopacity="1"
     objecttolerance="10"
     gridtolerance="10"
     guidetolerance="10"
     inkscape:pageopacity="0"
     inkscape:pageshadow="2"
     inkscape:window-width="640"
     inkscape:window-height="480"
     id="namedview27"
     showgrid="false"
     inkscape:zoom="2.5175439"
     inkscape:cx="56"
     inkscape:cy="26.5"
     inkscape:window-x="0"
     inkscape:window-y="0"
     inkscape:window-maximized="0"
     inkscape:current-layer="Layer_2" />
  <defs
     id="defs4">
    <style
       id="style2">
      .cls-1 {
        fill: #212f3c;
      }

      .cls-2 {
        fill: #18a6e1;
      }

      .cls-2, .cls-3 {
        fill-rule: evenodd;
      }

      .cls-3 {
        fill: #fff;
      }
    </style>
  </defs>
  <title
     id="title6">Prime Video - rounded corners</title>
  <rect
     class="cls-1"
     x="0"
     y="0"
     width="110"
     height="55"
     id="rect8"
     style="fill:#212f3c" />
  <path
     class="cls-2"
     d="m 32,33.39 v 0.14 a 0.66,0.66 0 0 0 0.2,0.36 32.73,32.73 0 0 0 23,9.45 c 6.35,0 13.73,-2.15 18.82,-6.2 a 0.74,0.74 0 1 0 -0.74,-1.28 42.94,42.94 0 0 1 -17.55,3.87 43.69,43.69 0 0 1 -23,-6.58 0.65,0.65 0 0 0 -0.33,-0.1 0.39,0.39 0 0 0 -0.39,0.34"
     id="path10"
     inkscape:connector-curvature="0"
     style="fill:#18a6e1;fill-rule:evenodd" />
  <path
     class="cls-2"
     d="m 69.84,34 a 0.64,0.64 0 0 0 -0.29,0.42 v 0.09 c 0,0.15 0.16,0.26 0.42,0.22 1.63,-0.21 5.29,-0.68 5.94,0.22 0.65,0.9 -0.73,4.58 -1.34,6.23 -0.19,0.49 0.21,0.7 0.63,0.32 2.73,-2.45 3.44,-7.59 2.88,-8.33 A 5,5 0 0 0 75,32.51 8.68,8.68 0 0 0 69.84,34"
     id="path12"
     inkscape:connector-curvature="0"
     style="fill:#18a6e1;fill-rule:evenodd" />
  <path
     class="cls-3"
     d="m 61.61,28.67 a 0.79,0.79 0 0 1 -0.28,0 A 0.46,0.46 0 0 1 61.15,28.54 1.3,1.3 0 0 1 61,28.27 L 58.12,20.7 58,20.42 a 0.42,0.42 0 0 1 0,-0.18 c 0,-0.17 0.11,-0.26 0.34,-0.26 H 60 a 0.52,0.52 0 0 1 0.59,0.44 l 1.73,6 1.77,-6 a 0.52,0.52 0 0 1 0.59,-0.44 h 1.64 c 0.22,0 0.34,0.09 0.34,0.26 a 0.65,0.65 0 0 1 0,0.18 l -0.08,0.24 -2.89,7.57 a 1,1 0 0 1 -0.14,0.27 0.46,0.46 0 0 1 -0.18,0.13 0.69,0.69 0 0 1 -0.28,0 z m 6.69,0 A 0.36,0.36 0 0 1 67.88,28.25 V 20.41 A 0.46,0.46 0 0 1 67.98,20.07 0.47,0.47 0 0 1 68.3,20 h 1.62 a 0.47,0.47 0 0 1 0.33,0.09 0.51,0.51 0 0 1 0.09,0.34 v 7.84 a 0.47,0.47 0 0 1 -0.09,0.32 0.42,0.42 0 0 1 -0.33,0.1 z m 0.81,-10 a 1.45,1.45 0 0 1 -1,-0.36 1.4,1.4 0 0 1 0,-1.94 1.65,1.65 0 0 1 2.06,0 1.4,1.4 0 0 1 0,1.94 1.45,1.45 0 0 1 -1,0.36 z m 6.42,10.22 A 3.21,3.21 0 0 1 73.63,28.32 3.65,3.65 0 0 1 72.39,26.74 5.85,5.85 0 0 1 72,24.37 5.35,5.35 0 0 1 73,21 a 3.19,3.19 0 0 1 2.63,-1.26 3.63,3.63 0 0 1 2.31,0.76 v -4 a 0.42,0.42 0 0 1 0.11,-0.33 0.45,0.45 0 0 1 0.32,-0.09 h 1.61 a 0.47,0.47 0 0 1 0.33,0.09 0.42,0.42 0 0 1 0.1,0.33 v 11.75 a 0.36,0.36 0 0 1 -0.43,0.42 H 78.59 A 0.51,0.51 0 0 1 78.27,28.59 0.57,0.57 0 0 1 78.11,28.3 l -0.1,-0.39 a 3.56,3.56 0 0 1 -2.48,0.95 z M 76.34,27 a 2.8,2.8 0 0 0 1.55,-0.48 V 22 a 3.26,3.26 0 0 0 -1.67,-0.42 1.48,1.48 0 0 0 -1.33,0.67 3.8,3.8 0 0 0 -0.44,2 3.58,3.58 0 0 0 0.47,2 1.62,1.62 0 0 0 1.42,0.66 z m 18.91,1.94 a 4.05,4.05 0 0 1 -3.13,-1.22 4.76,4.76 0 0 1 -1.12,-3.4 4.75,4.75 0 0 1 1.13,-3.38 4.67,4.67 0 0 1 6.27,0 4.79,4.79 0 0 1 1.13,3.38 4.8,4.8 0 0 1 -1.13,3.39 4.07,4.07 0 0 1 -3.14,1.22 z m 0,-1.91 Q 97,27 97,24.32 c 0,-1.79 -0.59,-2.69 -1.77,-2.69 -1.18,0 -1.77,0.9 -1.77,2.69 0,1.79 0.59,2.7 1.77,2.7 z M 86,25.1 a 6.08,6.08 0 0 1 -1.63,-0.19 2.23,2.23 0 0 0 0.67,1.6 2.56,2.56 0 0 0 1.72,0.49 6.58,6.58 0 0 0 0.9,-0.06 12,12 0 0 0 1.21,-0.26 h 0.1 0.03 c 0.18,0 0.28,0.13 0.28,0.38 v 0.77 a 0.72,0.72 0 0 1 -0.08,0.38 0.63,0.63 0 0 1 -0.29,0.19 7,7 0 0 1 -2.56,0.46 4.15,4.15 0 0 1 -3.14,-1.13 4.51,4.51 0 0 1 -1.1,-3.26 4.86,4.86 0 0 1 1.14,-3.47 4,4 0 0 1 3.11,-1.23 3.57,3.57 0 0 1 2.41,0.75 2.54,2.54 0 0 1 0.86,2 2.14,2.14 0 0 1 -0.93,1.89 4.83,4.83 0 0 1 -2.7,0.69 m 0.23,-3.61 c -1.05,0 -1.66,0.66 -1.83,2 a 7.38,7.38 0 0 0 1.47,0.13 2.25,2.25 0 0 0 1.13,-0.28 0.92,0.92 0 0 0 0.38,-0.8 c 0,-0.7 -0.41,-1.05 -1.24,-1.05"
     id="path14"
     inkscape:connector-curvature="0"
     style="fill:#ffffff;fill-rule:evenodd" />
  <path
     class="cls-2"
     d="m 14.54,21.6 a 3.18,3.18 0 0 0 -1.66,0.46 v 4.48 a 3.16,3.16 0 0 0 1.66,0.46 1.6,1.6 0 0 0 1.4,-0.65 3.63,3.63 0 0 0 0.45,-2 A 3.75,3.75 0 0 0 16,22.25 1.6,1.6 0 0 0 14.59,21.6 Z m -4.13,-1.19 a 0.36,0.36 0 0 1 0.42,-0.43 h 1.22 a 0.45,0.45 0 0 1 0.48,0.38 l 0.11,0.44 a 3.69,3.69 0 0 1 1.23,-0.8 3.78,3.78 0 0 1 1.47,-0.29 3.14,3.14 0 0 1 2.6,1.21 5.14,5.14 0 0 1 0.95,3.26 6,6 0 0 1 -0.47,2.47 3.88,3.88 0 0 1 -1.29,1.63 3.15,3.15 0 0 1 -1.86,0.57 A 4.15,4.15 0 0 1 14,28.65 3.14,3.14 0 0 1 12.88,28 v 3.73 a 0.47,0.47 0 0 1 -0.09,0.33 0.42,0.42 0 0 1 -0.33,0.1 h -1.63 a 0.36,0.36 0 0 1 -0.42,-0.43 z"
     id="path16"
     inkscape:connector-curvature="0"
     style="fill:#18a6e1;fill-rule:evenodd" />
  <path
     class="cls-2"
     d="m 22.89,21.28 a 4.71,4.71 0 0 1 1.28,-1.07 2.68,2.68 0 0 1 1.27,-0.31 h 0.24 A 0.51,0.51 0 0 1 26,20 a 0.44,0.44 0 0 1 0.1,0.33 v 1.43 a 0.5,0.5 0 0 1 -0.09,0.33 0.46,0.46 0 0 1 -0.33,0.1 H 25.37 24.9 a 4.63,4.63 0 0 0 -1,0.12 4.13,4.13 0 0 0 -0.95,0.28 v 5.71 a 0.5,0.5 0 0 1 -0.09,0.33 0.42,0.42 0 0 1 -0.33,0.1 H 21 a 0.44,0.44 0 0 1 -0.32,-0.1 0.45,0.45 0 0 1 -0.1,-0.33 V 20.41 A 0.42,0.42 0 0 1 20.68,20.08 0.44,0.44 0 0 1 21,20 h 1.22 a 0.45,0.45 0 0 1 0.48,0.38 l 0.22,0.92 z"
     id="path18"
     inkscape:connector-curvature="0"
     style="fill:#18a6e1;fill-rule:evenodd" />
  <path
     class="cls-2"
     d="m 27.32,20.41 a 0.36,0.36 0 0 1 0.42,-0.43 h 1.63 a 0.45,0.45 0 0 1 0.33,0.1 0.47,0.47 0 0 1 0.09,0.33 v 7.84 a 0.5,0.5 0 0 1 -0.09,0.33 0.45,0.45 0 0 1 -0.33,0.1 h -1.63 a 0.42,0.42 0 0 1 -0.32,-0.1 0.45,0.45 0 0 1 -0.1,-0.33 z m 1.23,-1.77 a 1.45,1.45 0 0 1 -1,-0.36 1.4,1.4 0 0 1 0,-1.94 1.45,1.45 0 0 1 1,-0.36 1.48,1.48 0 0 1 1,0.36 1.4,1.4 0 0 1 0,1.94 1.48,1.48 0 0 1 -1,0.36 z"
     id="path20"
     inkscape:connector-curvature="0"
     style="fill:#18a6e1;fill-rule:evenodd" />
  <path
     class="cls-2"
     d="M 34.14,20.82 A 7,7 0 0 1 35.75,20 4.44,4.44 0 0 1 37.24,19.75 2.28,2.28 0 0 1 39.39,20.84 6.62,6.62 0 0 1 41,20 a 5,5 0 0 1 1.58,-0.25 2.44,2.44 0 0 1 1.83,0.66 2.52,2.52 0 0 1 0.66,1.86 v 6 a 0.44,0.44 0 0 1 -0.1,0.32 0.42,0.42 0 0 1 -0.33,0.1 H 43 a 0.41,0.41 0 0 1 -0.32,-0.1 0.44,0.44 0 0 1 -0.11,-0.32 v -5.48 c 0,-0.77 -0.34,-1.16 -1,-1.16 a 4.19,4.19 0 0 0 -1.84,0.45 v 6.18 a 0.49,0.49 0 0 1 -0.1,0.32 0.42,0.42 0 0 1 -0.33,0.1 h -1.62 a 0.41,0.41 0 0 1 -0.32,-0.1 0.44,0.44 0 0 1 -0.11,-0.32 v -5.47 c 0,-0.77 -0.34,-1.16 -1,-1.16 a 4.19,4.19 0 0 0 -1.86,0.46 v 6.17 a 0.44,0.44 0 0 1 -0.1,0.32 0.42,0.42 0 0 1 -0.33,0.1 h -1.65 a 0.41,0.41 0 0 1 -0.32,-0.1 0.44,0.44 0 0 1 -0.1,-0.32 v -7.85 a 0.42,0.42 0 0 1 0.1,-0.33 0.41,0.41 0 0 1 0.32,-0.1 h 1.22 A 0.44,0.44 0 0 1 34,20.36 Z"
     id="path22"
     inkscape:connector-curvature="0"
     style="fill:#18a6e1;fill-rule:evenodd" />
  <path
     class="cls-2"
     d="m 50.66,21.45 c -1.08,0 -1.71,0.67 -1.87,2 a 7.69,7.69 0 0 0 1.5,0.13 2.37,2.37 0 0 0 1.26,-0.26 0.94,0.94 0 0 0 0.38,-0.81 c 0,-0.72 -0.42,-1.07 -1.27,-1.07 m -0.23,3.67 a 6.86,6.86 0 0 1 -1.68,-0.18 2.32,2.32 0 0 0 0.69,1.63 2.69,2.69 0 0 0 1.77,0.49 7,7 0 0 0 0.92,-0.06 10.35,10.35 0 0 0 1.24,-0.26 h 0.11 0.08 c 0.19,0 0.29,0.13 0.29,0.39 v 0.78 a 0.69,0.69 0 0 1 -0.08,0.38 0.61,0.61 0 0 1 -0.29,0.2 7.22,7.22 0 0 1 -2.63,0.48 4.29,4.29 0 0 1 -3.22,-1.16 4.53,4.53 0 0 1 -1.13,-3.32 4.93,4.93 0 0 1 1.15,-3.48 4.11,4.11 0 0 1 3.2,-1.26 3.64,3.64 0 0 1 2.46,0.76 2.56,2.56 0 0 1 0.89,2.05 2.2,2.2 0 0 1 -1,1.93 5,5 0 0 1 -2.82,0.65"
     id="path24"
     inkscape:connector-curvature="0"
     style="fill:#18a6e1;fill-rule:evenodd" />
</svg>
