<?xml version="1.0" encoding="UTF-8"?>
<svg width="20px" height="20px" viewBox="0 0 28 28" version="1.1" xmlns="http://www.w3.org/2000/svg" xmlns:xlink="http://www.w3.org/1999/xlink">
    <!-- Generator: sketchtool 60.1 (101010) - https://sketch.com -->
    <title>1652D4D4-303A-4227-AA83-E0C91409DCDC</title>
    <desc>Created with sketchtool.</desc>
    <defs>
        <linearGradient x1="0%" y1="50%" x2="100%" y2="50%" id="linearGradient-1">
            <stop stop-color="#FBD446" offset="0%"></stop>
            <stop stop-color="#E2B512" offset="100%"></stop>
        </linearGradient>
    </defs>
    <g id="Asset-Artboard-Page" stroke="none" stroke-width="1" fill="none" fill-rule="evenodd">
        <g id="Other/Logo-Triangle/Color-Foundations/Logos/Triangle/Color" transform="translate(0.367831, 0.000000)" fill="url(#linearGradient-1)">
            <path d="M-4.45800941e-15,19.7015845 C0.000566831774,19.62791 0.00721520515,19.5780917 0.00721520515,19.5780917 C0.00721520515,19.5780917 0.0558394085,15.4853053 0.0144304095,14.4518798 C-0.027292294,13.4190742 0.89594016,13.9094399 0.89594016,13.9094399 L6.07520208,16.5562366 C6.07520208,16.5562366 7.08784032,17.0366833 6.05763462,17.5595954 C5.29721482,17.9461226 1.90230432,19.701768 0.881196047,20.1874842 C0.0976940627,20.5607587 0.00215924564,20.0012268 -4.45800941e-15,19.7215301 L-4.45800941e-15,19.7015844 L-4.45800941e-15,19.7015845 Z M21.2500314,10.8066842 C21.2500314,10.8066842 21.1794478,9.96357761 21.9025368,10.330267 C22.6265668,10.6972663 26.2344825,12.5266837 26.2344825,12.5266837 C26.2344825,12.5266837 28.2308981,13.507725 26.229777,14.5172832 C24.8146559,15.2311341 22.6554276,16.3219033 21.9113205,16.6957219 C21.1668997,17.0695405 21.2443847,16.2639397 21.2443847,16.2639397 L21.2500314,10.8066842 Z M15.0389946,20.3226297 C14.0182002,20.8086558 14.1647002,19.7135472 14.1647002,19.7135472 C14.1647002,19.7135472 14.2136381,15.6207609 14.1722291,14.5870255 C14.1301927,13.5536 15.0537388,14.0448956 15.0537388,14.0448956 L20.2323729,16.6913822 C20.2323729,16.6913822 21.2456385,17.171519 20.2148054,17.695051 C19.4553268,18.0809582 16.0601028,19.8369136 15.0389946,20.3226297 Z M7.96872261,23.8398104 C6.94761437,24.3258366 7.09442809,23.229798 7.09442809,23.229798 C7.09442809,23.229798 7.1430523,19.1370114 7.1016433,18.1038958 C7.0599206,17.0701603 7.98283932,17.5614559 7.98283932,17.5614559 L13.1624148,20.2082527 C13.1624148,20.2082527 14.175053,20.6883895 13.1445336,21.2119215 C12.3844276,21.5975188 8.98951715,23.3534743 7.96872261,23.8398104 Z M7.97656485,16.6755735 C6.9557703,17.1612897 7.10258403,16.066181 7.10258403,16.066181 C7.10258403,16.066181 7.15120823,11.9733944 7.10948553,10.9399689 C7.06807653,9.90654336 7.99099526,10.397529 7.99099526,10.397529 L13.1705708,13.0443258 C13.1705708,13.0443258 14.1835227,13.5244626 13.1526896,14.0476846 C12.3928973,14.4335919 8.99767311,16.1895473 7.97656485,16.6755735 Z M15.0405637,12.9752037 C14.0197693,13.4612298 14.166583,12.3661212 14.166583,12.3661212 C14.166583,12.3661212 14.2152072,8.27302477 14.1734845,7.23959929 C14.1317618,6.20648378 15.0549942,6.6971594 15.0549942,6.6971594 L20.2342557,9.34426607 C20.2342557,9.34426607 21.2472075,9.82409289 20.2163745,10.3473149 C19.4562685,10.7332221 16.0610445,12.4891776 15.0405637,12.9752037 Z M0.88841118,13.115618 C-0.132383303,13.6016441 0.0144304083,12.5059155 0.0144304083,12.5059155 C0.0144304083,12.5059155 0.0630546078,8.41312912 0.0213319076,7.37970366 C-0.0203907925,6.34658815 0.902841587,6.83726377 0.902841587,6.83726377 L6.08210309,9.4843704 C6.08210309,9.4843704 7.09505496,9.96419722 6.06422193,10.4877292 C5.3044296,10.8739464 1.90920566,12.6292819 0.88841118,13.115618 Z M7.96934993,9.44314494 C6.94886911,9.92917109 7.09505542,8.83406242 7.09505542,8.83406242 C7.09505542,8.83406242 7.14399332,4.74127589 7.10195692,3.70754043 C7.06086162,2.67442489 7.98378034,3.16541049 7.98378034,3.16541049 L13.1630421,5.81220724 C13.1630421,5.81220724 14.175994,6.29203407 13.1454746,6.8152561 C12.3853685,7.20147331 8.99014446,8.95742875 7.96934993,9.44314494 Z M0.012544732,21.2509757 C0.0109796585,20.7237241 0.544904781,20.9397702 0.544904781,20.9397702 C0.544904781,20.9397702 5.82235621,23.6271725 6.41870854,23.9358983 C7.01568827,24.2449341 6.41996336,24.5871362 6.41996336,24.5871362 C6.41996336,24.5871362 4.28834102,25.645359 2.2191459,26.7032718 C0.150264473,27.7618045 0.0210182037,25.7154112 0.0210182037,25.7154112 L0.012544732,21.2509757 Z M0.0351347698,5.75734324 L0.039840476,1.29259804 C0.039840476,1.29259804 0.167518219,-0.753485212 2.23734069,0.302877719 C4.30716316,1.35893068 6.44004024,2.41467368 6.44004024,2.41467368 C6.44004024,2.41467368 7.03576514,2.75687576 6.43941283,3.06622148 C5.84274682,3.3755672 0.568432604,6.06761886 0.568432604,6.06761886 C0.568432604,6.06761886 0.0348212036,6.28397488 0.0351347698,5.75734324 Z" id="icon"></path>
        </g>
    </g>
</svg>