<?xml version="1.0" encoding="UTF-8" standalone="no"?>
<svg
   xmlns:dc="http://purl.org/dc/elements/1.1/"
   xmlns:cc="http://creativecommons.org/ns#"
   xmlns:rdf="http://www.w3.org/1999/02/22-rdf-syntax-ns#"
   xmlns:svg="http://www.w3.org/2000/svg"
   xmlns="http://www.w3.org/2000/svg"
   xmlns:sodipodi="http://sodipodi.sourceforge.net/DTD/sodipodi-0.dtd"
   xmlns:inkscape="http://www.inkscape.org/namespaces/inkscape"
   id="Layer_2"
   data-name="Layer 2"
   viewBox="0 0 110 55"
   version="1.1"
   sodipodi:docname="netflix.svg"
   width="110"
   height="55"
   inkscape:version="0.92.4 (5da689c313, 2019-01-14)">
  <metadata
     id="metadata18">
    <rdf:RDF>
      <cc:Work
         rdf:about="">
        <dc:format>image/svg+xml</dc:format>
        <dc:type
           rdf:resource="http://purl.org/dc/dcmitype/StillImage" />
      </cc:Work>
    </rdf:RDF>
  </metadata>
  <sodipodi:namedview
     pagecolor="#ffffff"
     bordercolor="#666666"
     borderopacity="1"
     objecttolerance="10"
     gridtolerance="10"
     guidetolerance="10"
     inkscape:pageopacity="0"
     inkscape:pageshadow="2"
     inkscape:window-width="640"
     inkscape:window-height="480"
     id="namedview16"
     showgrid="false"
     inkscape:zoom="2.5175439"
     inkscape:cx="56"
     inkscape:cy="26.5"
     inkscape:window-x="0"
     inkscape:window-y="0"
     inkscape:window-maximized="0"
     inkscape:current-layer="Layer_2" />
  <defs
     id="defs4">
    <style
       id="style2">.cls-1{fill:#e6e6e6;}.cls-2{fill:#e50914;}</style>
  </defs>
  <title
     id="title6">Artboard 10</title>
  <rect
     class="cls-1"
     x="0"
     y="0"
     width="110"
     height="55"
     id="rect8"
     style="fill:#e6e6e6" />
  <g
     id="V1.1"
     transform="translate(-1,-1)">
    <g
       id="newOnboarding---homePage---newUser">
      <g
         id="streamingspider">
        <g
           id="Page-1">
          <path
             id="Shape"
             class="cls-2"
             d="m 28.2,38.35 c -1.16,0.2 -2.33,0.27 -3.54,0.43 L 21,27.76 v 11.49 c -1.15,0.13 -2.21,0.29 -3.3,0.45 V 18.65 h 3.08 l 4.21,12 v -12 h 3.21 z m 6.37,-12 c 1.26,0 3.18,-0.06 4.34,-0.06 v 3.29 c -1.44,0 -3.12,0 -4.34,0.06 v 4.89 c 1.91,-0.12 3.81,-0.28 5.73,-0.35 v 3.17 l -9,0.72 V 18.65 h 9 v 3.29 H 34.57 Z M 52.35,21.93 H 49 v 15.14 c -1.1,0 -2.19,0 -3.24,0 V 21.94 h -3.37 v -3.29 h 10 z m 5.26,4.2 H 62 v 3.28 h -4.39 v 7.47 H 54.43 V 18.65 h 9 v 3.29 H 57.61 Z M 68.74,34 c 1.84,0 3.71,0.18 5.51,0.29 v 3.25 C 71.35,37.35 68.46,37.17 65.5,37.1 V 18.65 h 3.24 z M 77,37.77 c 1,0.06 2.13,0.13 3.18,0.25 V 18.65 H 77 Z m 17.35,-19.12 -4.11,10 4.11,11 C 93.13,39.49 91.92,39.26 90.7,39.06 L 88.38,33 86,38.62 c -1.18,-0.21 -2.31,-0.27 -3.48,-0.44 l 4.17,-9.64 -3.77,-9.89 h 3.48 l 2.13,5.53 2.27,-5.53 z"
             inkscape:connector-curvature="0"
             style="fill:#e50914" />
        </g>
      </g>
    </g>
  </g>
</svg>
